<?xml version="1.0" standalone="no"?>
<!DOCTYPE svg PUBLIC "-//W3C//DTD SVG 20010904//EN"
 "http://www.w3.org/TR/2001/REC-SVG-20010904/DTD/svg10.dtd">
<svg version="1.0" xmlns="http://www.w3.org/2000/svg"
 width="512.000000pt" height="512.000000pt" viewBox="0 0 512.000000 512.000000"
 preserveAspectRatio="xMidYMid meet">
<metadata>
Created by potrace 1.14, written by Peter Selinger 2001-2017
</metadata>
<g transform="translate(0.000000,512.000000) scale(0.100000,-0.100000)"
fill="#000000" stroke="none">
<path d="M2487 4066 c-55 -21 -103 -61 -134 -114 -24 -39 -28 -58 -28 -118 0
-61 4 -77 30 -120 75 -121 222 -158 339 -84 116 74 149 224 73 337 -61 91
-184 135 -280 99z"/>
<path d="M1567 3736 c-203 -76 -261 -321 -112 -471 61 -60 109 -80 200 -80 91
0 139 20 200 80 60 61 80 109 80 200 0 64 -5 89 -23 122 -29 55 -81 107 -135
134 -53 28 -157 35 -210 15z"/>
<path d="M3385 3651 c-135 -63 -165 -233 -59 -333 104 -97 264 -64 325 67 76
163 -103 342 -266 266z"/>
<path d="M1182 2872 c-139 -50 -232 -191 -219 -332 10 -114 81 -216 186 -267
47 -24 69 -28 136 -28 67 0 89 4 136 28 66 32 132 99 162 165 33 73 31 189 -6
263 -32 67 -100 133 -165 161 -66 30 -163 33 -230 10z"/>
<path d="M3770 2697 c-50 -26 -90 -90 -90 -142 0 -52 40 -116 90 -142 55 -29
95 -29 150 0 50 26 90 90 90 142 0 52 -40 116 -90 142 -55 29 -95 29 -150 0z"/>
<path d="M3353 2085 c-29 -8 -72 -24 -95 -36 -55 -28 -159 -132 -187 -187 -78
-152 -62 -344 40 -472 53 -67 127 -124 196 -151 83 -33 233 -33 316 0 109 43
215 149 258 258 33 83 33 233 0 316 -43 110 -150 216 -258 257 -75 28 -199 35
-270 15z"/>
<path d="M1567 2010 c-99 -25 -200 -110 -245 -208 -23 -48 -27 -70 -27 -147 0
-77 4 -99 27 -147 15 -32 50 -81 78 -108 27 -28 76 -63 108 -78 48 -23 70 -27
147 -27 77 0 99 4 147 27 74 34 152 112 186 186 23 48 27 70 27 147 0 77 -4
99 -27 147 -34 73 -112 152 -183 184 -62 29 -174 40 -238 24z"/>
<path d="M2436 1660 c-126 -40 -227 -142 -266 -268 -66 -212 54 -436 269 -503
209 -65 436 57 501 269 95 306 -200 599 -504 502z"/>
</g>
</svg>
